<svg width="169" height="56" viewBox="0 0 169 56" fill="none" xmlns="http://www.w3.org/2000/svg">
<rect width="169" height="56" fill="#1E1E1E"/>
<g id="Game UI Design" clip-path="url(#clip0_0_1)">
<rect width="1440" height="1264" transform="translate(-1136 -943)" fill="#010313"/>
<g id="Rectangle 1">
<path id="Rectangle 1_2" d="M690.5 249.5L-749.5 249.5L-749.5 -410.5L690.5 -410.5L690.5 249.5Z" fill="url(#paint0_linear_0_1)"/>
</g>
<g id="Group 27">
<path id="Rectangle 5" d="M0 28C0 12.536 12.536 0 28 0H161C165.418 0 169 3.58172 169 8V48C169 52.4183 165.418 56 161 56H28C12.536 56 0 43.464 0 28V28Z" fill="white" fill-opacity="0.07"/>
<g id="Group 25">
<g id="Group 31">
<g id="Group 30">
<rect id="Rectangle 4" x="-1" y="-0.00189209" width="170" height="56" rx="28" fill="#360490"/>
<g id="Group 29">
<g id="Group 24">
<path id="Score" d="M41.8848 24.2737C41.809 23.6013 41.4965 23.0805 40.9473 22.7112C40.398 22.3371 39.7067 22.1501 38.8734 22.1501C38.2768 22.1501 37.7607 22.2448 37.3251 22.4342C36.8895 22.6188 36.551 22.8745 36.3095 23.2012C36.0727 23.5232 35.9544 23.8902 35.9544 24.3021C35.9544 24.6477 36.0349 24.946 36.1958 25.197C36.3616 25.4479 36.577 25.6586 36.8422 25.8291C37.112 25.9948 37.4009 26.1345 37.7086 26.2481C38.0164 26.357 38.3123 26.447 38.5964 26.518L40.0169 26.8873C40.4809 27.0009 40.9567 27.1548 41.4444 27.349C41.9321 27.5431 42.3843 27.7988 42.801 28.116C43.2176 28.4332 43.5538 28.8262 43.8095 29.295C44.0699 29.7637 44.2001 30.3248 44.2001 30.9782C44.2001 31.8021 43.987 32.5336 43.5609 33.1728C43.1395 33.812 42.5263 34.3163 41.7214 34.6856C40.9212 35.0549 39.9529 35.2396 38.8166 35.2396C37.7276 35.2396 36.7853 35.0668 35.9899 34.7211C35.1944 34.3755 34.5718 33.8854 34.122 33.2509C33.6722 32.6117 33.4236 31.8542 33.3762 30.9782H35.5779C35.6206 31.5038 35.791 31.9418 36.0893 32.2921C36.3923 32.6378 36.7782 32.8958 37.247 33.0663C37.7205 33.232 38.2389 33.3149 38.8024 33.3149C39.4226 33.3149 39.9743 33.2178 40.4572 33.0237C40.9449 32.8248 41.3284 32.5502 41.6078 32.1998C41.8871 31.8447 42.0268 31.4304 42.0268 30.9569C42.0268 30.526 41.9037 30.1733 41.6575 29.8987C41.416 29.6241 41.0869 29.3968 40.6703 29.2169C40.2583 29.0369 39.792 28.8783 39.2711 28.741L37.5524 28.2723C36.3876 27.955 35.4643 27.4886 34.7825 26.8731C34.1054 26.2576 33.7669 25.4432 33.7669 24.4299C33.7669 23.5919 33.9941 22.8603 34.4487 22.2353C34.9032 21.6103 35.5188 21.125 36.2953 20.7794C37.0718 20.429 37.9477 20.2538 38.9231 20.2538C39.908 20.2538 40.7768 20.4266 41.5297 20.7723C42.2872 21.1179 42.8838 21.5938 43.3194 22.1998C43.755 22.8011 43.9823 23.4924 44.0012 24.2737H41.8848ZM51.2473 35.2183C50.1915 35.2183 49.2824 34.9792 48.5201 34.5009C47.7625 34.018 47.1801 33.3527 46.7729 32.5052C46.3657 31.6577 46.1621 30.687 46.1621 29.5933C46.1621 28.4853 46.3704 27.5076 46.7871 26.66C47.2038 25.8078 47.7909 25.1425 48.5485 24.6643C49.306 24.1861 50.1986 23.947 51.226 23.947C52.0546 23.947 52.7933 24.1009 53.4419 24.4086C54.0906 24.7116 54.6138 25.1378 55.0115 25.687C55.414 26.2363 55.6531 26.8778 55.7289 27.6117H53.6621C53.5485 27.1004 53.2881 26.66 52.8809 26.2907C52.4784 25.9214 51.9386 25.7367 51.2615 25.7367C50.6697 25.7367 50.1512 25.893 49.7061 26.2055C49.2658 26.5133 48.9225 26.9536 48.6763 27.5265C48.4301 28.0947 48.307 28.767 48.307 29.5436C48.307 30.339 48.4277 31.0256 48.6692 31.6032C48.9107 32.1809 49.2516 32.6283 49.6919 32.9456C50.137 33.2628 50.6602 33.4214 51.2615 33.4214C51.664 33.4214 52.0286 33.348 52.3553 33.2012C52.6867 33.0497 52.9637 32.8343 53.1863 32.5549C53.4135 32.2756 53.5721 31.9394 53.6621 31.5464H55.7289C55.6531 32.2519 55.4235 32.8816 55.04 33.4356C54.6564 33.9896 54.1427 34.4252 53.4988 34.7424C52.8596 35.0597 52.1091 35.2183 51.2473 35.2183ZM62.595 35.2183C61.5723 35.2183 60.6797 34.9839 59.9174 34.5152C59.1551 34.0464 58.5633 33.3906 58.1419 32.5478C57.7205 31.705 57.5098 30.7202 57.5098 29.5933C57.5098 28.4616 57.7205 27.4721 58.1419 26.6245C58.5633 25.777 59.1551 25.1188 59.9174 24.6501C60.6797 24.1813 61.5723 23.947 62.595 23.947C63.6177 23.947 64.5102 24.1813 65.2725 24.6501C66.0349 25.1188 66.6267 25.777 67.0481 26.6245C67.4695 27.4721 67.6802 28.4616 67.6802 29.5933C67.6802 30.7202 67.4695 31.705 67.0481 32.5478C66.6267 33.3906 66.0349 34.0464 65.2725 34.5152C64.5102 34.9839 63.6177 35.2183 62.595 35.2183ZM62.6021 33.4356C63.265 33.4356 63.8142 33.2604 64.2498 32.91C64.6854 32.5597 65.0074 32.0933 65.2157 31.5109C65.4288 30.9285 65.5353 30.2869 65.5353 29.5862C65.5353 28.8902 65.4288 28.2509 65.2157 27.6686C65.0074 27.0814 64.6854 26.6103 64.2498 26.2552C63.8142 25.9001 63.265 25.7225 62.6021 25.7225C61.9345 25.7225 61.3805 25.9001 60.9402 26.2552C60.5046 26.6103 60.1802 27.0814 59.9672 27.6686C59.7588 28.2509 59.6547 28.8902 59.6547 29.5862C59.6547 30.2869 59.7588 30.9285 59.9672 31.5109C60.1802 32.0933 60.5046 32.5597 60.9402 32.91C61.3805 33.2604 61.9345 33.4356 62.6021 33.4356ZM70.0506 34.9981V24.089H72.1032V25.822H72.2168C72.4157 25.2348 72.766 24.7732 73.2679 24.437C73.7746 24.0961 74.3475 23.9257 74.9867 23.9257C75.1193 23.9257 75.2755 23.9304 75.4554 23.9399C75.6401 23.9493 75.7845 23.9612 75.8887 23.9754V26.0066C75.8034 25.983 75.6519 25.9569 75.4341 25.9285C75.2163 25.8954 74.9985 25.8788 74.7807 25.8788C74.2788 25.8788 73.8314 25.9853 73.4384 26.1984C73.0501 26.4067 72.7424 26.6979 72.5151 27.072C72.2878 27.4413 72.1742 27.8627 72.1742 28.3362V34.9981H70.0506ZM82.0375 35.2183C80.9627 35.2183 80.037 34.9886 79.2605 34.5294C78.4887 34.0653 77.8921 33.4143 77.4707 32.5762C77.054 31.7334 76.8457 30.7462 76.8457 29.6146C76.8457 28.4972 77.054 27.5123 77.4707 26.66C77.8921 25.8078 78.4792 25.1425 79.2321 24.6643C79.9896 24.1861 80.8751 23.947 81.8883 23.947C82.5038 23.947 83.1004 24.0488 83.6781 24.2524C84.2557 24.456 84.7742 24.7756 85.2335 25.2112C85.6928 25.6468 86.055 26.2126 86.3201 26.9086C86.5853 27.5999 86.7179 28.4403 86.7179 29.4299V30.1828H78.046V28.5919H84.6369C84.6369 28.0331 84.5233 27.5384 84.296 27.1075C84.0687 26.6719 83.7491 26.3286 83.3372 26.0777C82.93 25.8267 82.4518 25.7012 81.9025 25.7012C81.3059 25.7012 80.7851 25.848 80.34 26.1416C79.8997 26.4304 79.5588 26.8092 79.3173 27.2779C79.0806 27.742 78.9622 28.2462 78.9622 28.7907V30.0336C78.9622 30.7628 79.09 31.3831 79.3457 31.8944C79.6061 32.4058 79.9683 32.7964 80.4324 33.0663C80.8964 33.3314 81.4385 33.464 82.0588 33.464C82.4612 33.464 82.8282 33.4072 83.1596 33.2936C83.4911 33.1752 83.7775 33 84.019 32.768C84.2605 32.536 84.4451 32.2495 84.573 31.9086L86.5829 32.2708C86.4219 32.8627 86.1331 33.3812 85.7164 33.8262C85.3045 34.2666 84.786 34.6099 84.161 34.8561C83.5408 35.0975 82.8329 35.2183 82.0375 35.2183Z" fill="white"/>
</g>
<g id="Group 28">
<path id="monetization_on" d="M105.632 34.9926H107.485V33.6695C108.367 33.5107 109.125 33.1667 109.761 32.6374C110.396 32.1082 110.713 31.3231 110.713 30.2823C110.713 29.5413 110.501 28.8621 110.078 28.2447C109.655 27.6272 108.808 27.0891 107.538 26.6305C106.479 26.2776 105.747 25.9689 105.341 25.7043C104.936 25.4396 104.733 25.078 104.733 24.6193C104.733 24.1606 104.896 23.799 105.222 23.5343C105.549 23.2697 106.02 23.1374 106.638 23.1374C107.202 23.1374 107.644 23.2741 107.961 23.5476C108.279 23.821 108.508 24.1606 108.649 24.5664L110.343 23.8784C110.149 23.2609 109.791 22.7228 109.271 22.2641C108.751 21.8055 108.173 21.5497 107.538 21.4967V20.1736H105.685V21.4967C104.803 21.6908 104.115 22.0789 103.621 22.6611C103.127 23.2433 102.88 23.896 102.88 24.6193C102.88 25.4485 103.123 26.1189 103.608 26.6305C104.093 27.1421 104.856 27.5831 105.897 27.9536C107.008 28.3593 107.78 28.721 108.212 29.0385C108.645 29.3561 108.861 29.7707 108.861 30.2823C108.861 30.8645 108.653 31.2923 108.239 31.5657C107.824 31.8392 107.326 31.9759 106.744 31.9759C106.162 31.9759 105.646 31.7951 105.196 31.4334C104.746 31.0717 104.415 30.5293 104.203 29.806L102.457 30.494C102.704 31.3408 103.088 32.0244 103.608 32.5448C104.128 33.0653 104.803 33.4225 105.632 33.6166V34.9926ZM106.585 38.1681C105.121 38.1681 103.745 37.8903 102.457 37.3345C101.169 36.7788 100.049 36.0246 99.0961 35.072C98.1435 34.1193 97.3893 32.9991 96.8336 31.7113C96.2779 30.4234 96 29.0474 96 27.5831C96 26.1188 96.2779 24.7428 96.8336 23.455C97.3893 22.1671 98.1435 21.0469 99.0961 20.0942C100.049 19.1416 101.169 18.3874 102.457 17.8317C103.745 17.276 105.121 16.9981 106.585 16.9981C108.049 16.9981 109.425 17.276 110.713 17.8317C112.001 18.3874 113.121 19.1416 114.074 20.0942C115.027 21.0469 115.781 22.1671 116.336 23.455C116.892 24.7428 117.17 26.1188 117.17 27.5831C117.17 29.0474 116.892 30.4234 116.336 31.7113C115.781 32.9991 115.027 34.1193 114.074 35.072C113.121 36.0246 112.001 36.7788 110.713 37.3345C109.425 37.8903 108.049 38.1681 106.585 38.1681Z" fill="white"/>
<path id="1" d="M132.361 20.4527V34.9981H130.159V22.6544H130.074L126.594 24.9271V22.8248L130.223 20.4527H132.361Z" fill="white"/>
</g>
</g>
</g>
</g>
</g>
</g>
</g>
<defs>
<linearGradient id="paint0_linear_0_1" x1="-23.9999" y1="426.5" x2="-23.9999" y2="-407" gradientUnits="userSpaceOnUse">
<stop stop-color="#010313"/>
<stop offset="1" stop-color="#010313" stop-opacity="0"/>
</linearGradient>
<clipPath id="clip0_0_1">
<rect width="1440" height="1264" fill="white" transform="translate(-1136 -943)"/>
</clipPath>
</defs>
</svg>
